<?xml version="1.0" standalone="no"?>
<!DOCTYPE svg PUBLIC "-//W3C//DTD SVG 20010904//EN"
 "http://www.w3.org/TR/2001/REC-SVG-20010904/DTD/svg10.dtd">
<svg version="1.0" xmlns="http://www.w3.org/2000/svg"
 width="700.000000pt" height="700.000000pt" viewBox="0 0 700.000000 700.000000"
 preserveAspectRatio="xMidYMid meet">
<metadata>
Created by potrace 1.11, written by Peter Selinger 2001-2013
</metadata>
<g transform="translate(0.000000,700.000000) scale(0.100000,-0.100000)"
fill="#000000" stroke="none">
<path d="M3483 6903 c-66 -92 -201 -357 -253 -493 -7 -19 -16 -39 -20 -43 -4
-5 -47 12 -96 36 -139 69 -129 71 -147 -25 -26 -133 -37 -244 -37 -375 0 -68
-4 -123 -9 -123 -5 0 -68 30 -141 66 -76 39 -135 63 -140 58 -23 -23 -42 -260
-37 -451 3 -146 2 -193 -7 -193 -7 0 -35 6 -62 14 -53 16 -187 41 -271 51 -65
7 -65 8 -19 -124 69 -199 141 -355 234 -510 28 -47 49 -88 46 -93 -3 -4 -20
-8 -38 -8 -33 0 -136 -17 -143 -23 -2 -2 33 -79 77 -171 89 -184 158 -346 201
-475 16 -47 29 -86 29 -88 0 -25 -168 103 -327 249 -130 119 -291 289 -417
442 -49 58 -92 106 -97 106 -4 0 -38 -33 -76 -74 l-68 -75 -115 113 c-122 119
-312 276 -334 276 -18 0 -59 -97 -90 -216 -15 -54 -28 -99 -29 -101 -2 -1 -64
24 -138 56 -157 68 -353 135 -373 128 -12 -5 -10 -23 10 -109 28 -118 77 -270
110 -342 13 -27 21 -53 19 -56 -3 -4 -33 -13 -67 -19 -72 -14 -189 -49 -202
-62 -21 -19 141 -245 276 -384 49 -49 88 -93 88 -97 0 -3 -28 -26 -62 -51 -35
-25 -72 -55 -83 -67 l-20 -22 55 -50 c198 -178 341 -292 498 -398 29 -19 52
-40 52 -46 0 -6 -29 -34 -64 -62 -68 -56 -146 -136 -146 -151 0 -12 102 -93
207 -164 44 -30 136 -83 204 -117 67 -33 127 -64 131 -67 5 -2 -34 -47 -86
-98 -53 -51 -96 -98 -96 -104 0 -27 234 -112 415 -151 95 -20 113 -26 104 -33
-2 -2 -52 -20 -110 -40 -190 -65 -559 -234 -559 -257 0 -25 231 -173 389 -248
l115 -54 -55 -51 c-128 -118 -277 -269 -353 -357 -106 -123 -240 -300 -232
-308 14 -13 487 67 653 112 29 8 55 10 58 5 3 -4 -7 -34 -23 -66 -39 -78 -96
-223 -90 -228 6 -6 352 39 468 60 119 23 160 28 160 23 0 -3 -19 -39 -43 -81
-46 -79 -103 -216 -114 -268 -5 -27 -4 -31 13 -25 10 3 80 19 154 35 275 61
586 160 822 262 66 29 121 50 123 48 2 -3 11 -49 19 -104 18 -118 54 -235 102
-325 44 -84 153 -230 172 -230 16 0 222 187 222 202 0 5 -28 47 -61 91 -83
111 -130 210 -136 290 -8 97 1 100 144 42 300 -120 676 -234 1027 -310 15 -3
17 1 13 25 -11 54 -66 185 -112 264 -25 44 -43 81 -41 84 3 2 60 -6 128 -18
183 -33 482 -70 491 -61 7 7 -47 149 -89 234 -14 26 -22 51 -20 56 3 5 58 -5
123 -20 185 -45 593 -111 593 -95 0 3 -32 50 -72 103 -130 177 -318 382 -488
535 l-85 76 40 17 c167 70 465 254 465 286 0 24 -442 222 -612 275 -32 10 -58
21 -58 25 0 4 53 19 118 34 204 47 402 119 402 146 0 6 -43 53 -95 105 -52 51
-91 95 -87 98 5 3 62 32 128 65 65 33 155 83 198 111 93 60 216 158 216 171 0
15 -78 95 -146 151 -35 28 -64 57 -64 63 0 7 33 34 73 60 126 84 309 230 472
378 l60 55 -20 22 c-11 12 -48 42 -82 67 -55 39 -80 73 -55 73 15 0 192 185
247 260 78 104 129 190 119 200 -14 12 -131 47 -202 61 -34 6 -65 15 -67 19
-3 4 11 43 30 86 54 126 128 404 111 421 -12 13 -273 -78 -425 -148 -46 -22
-86 -37 -88 -35 -2 2 -15 46 -29 97 -26 100 -77 219 -92 219 -22 0 -204 -152
-325 -269 l-128 -125 -17 25 c-26 37 -94 109 -113 119 -14 8 -35 -13 -120
-113 -128 -153 -446 -471 -559 -560 -108 -86 -159 -121 -165 -115 -14 13 117
339 231 576 41 85 72 158 69 160 -3 3 -45 10 -95 16 -49 5 -90 14 -90 18 0 4
25 49 56 100 104 171 285 601 262 623 -9 9 -172 -15 -285 -42 -62 -15 -114
-25 -117 -22 -2 2 1 38 6 79 19 142 -9 557 -38 567 -5 2 -71 -28 -147 -66
l-137 -70 0 102 c0 126 -17 300 -39 403 -20 94 -15 93 -144 28 -49 -24 -92
-42 -97 -39 -4 2 -18 33 -30 67 -41 111 -216 446 -255 486 -10 11 -16 9 -32
-15z m55 -1289 l7 -431 75 45 c41 25 113 74 160 109 l85 65 -82 -80 c-46 -44
-120 -105 -167 -136 l-84 -55 -4 -238 c-2 -131 -2 -336 0 -455 l4 -217 101 77
c129 98 317 284 393 387 32 44 67 92 77 105 10 14 3 -3 -15 -38 -81 -150 -252
-347 -442 -506 l-111 -93 3 -82 4 -81 -36 0 -36 0 0 53 c0 28 -3 82 -7 119
l-6 68 -86 62 c-170 124 -398 370 -480 520 -31 55 -26 50 46 -47 118 -158 278
-310 447 -424 l73 -49 6 261 6 262 -88 82 c-91 85 -167 180 -215 268 -15 28
-19 39 -9 25 88 -120 241 -282 293 -310 15 -8 17 17 28 248 19 400 25 353 -66
475 -77 102 -178 264 -170 272 2 2 25 -28 52 -67 27 -39 83 -112 125 -162 l76
-91 6 110 c4 61 8 218 9 350 3 222 4 232 12 135 4 -58 12 -299 16 -536z
m-2197 -1554 c13 21 11 105 -5 178 -7 34 -9 62 -5 62 18 0 49 -134 49 -209 l0
-78 148 -139 c129 -122 147 -136 150 -116 6 40 -27 163 -62 235 -21 44 -29 70
-22 74 6 3 8 3 5 -1 -4 -4 4 -18 16 -30 27 -28 78 -124 95 -181 6 -22 15 -71
20 -108 5 -48 14 -75 29 -91 27 -29 27 -33 -8 -51 l-29 -15 -104 109 -103 108
-84 7 c-46 4 -117 16 -156 26 -81 21 -205 74 -205 88 0 5 45 -6 101 -25 77
-27 123 -36 197 -40 l97 -5 -161 163 c-174 178 -311 330 -333 369 -7 14 71
-58 173 -160 146 -143 189 -181 197 -170z m4679 345 c0 -11 -185 -214 -343
-375 -95 -96 -185 -190 -202 -209 l-30 -33 95 4 c70 4 119 13 188 37 111 37
122 38 62 6 -73 -40 -195 -74 -298 -85 l-97 -10 -68 -72 c-63 -66 -70 -70 -92
-60 -14 7 -25 16 -25 21 0 9 250 250 303 291 26 20 27 26 27 106 0 85 23 225
42 254 7 11 8 9 4 -10 -11 -58 -16 -198 -9 -239 l8 -44 215 211 c118 116 216
211 218 212 1 0 2 -2 2 -5z m-2381 -663 c19 -9 44 -30 55 -45 19 -26 21 -44
24 -245 4 -248 -2 -282 -57 -319 -30 -20 -46 -23 -143 -23 -120 0 -152 10
-184 57 -17 26 -19 49 -19 265 0 223 1 238 21 265 35 48 78 63 179 63 66 0 99
-5 124 -18z m388 -24 c6 -7 37 -93 69 -190 32 -98 61 -178 64 -178 3 0 18 75
33 167 15 92 29 169 31 171 3 2 29 -1 59 -8 l54 -11 -54 -317 c-30 -174 -55
-318 -57 -320 -4 -3 -86 14 -90 20 -2 1 -32 89 -66 193 -35 105 -65 185 -67
178 -3 -7 -17 -85 -32 -175 l-27 -163 -50 3 c-27 2 -52 7 -56 11 -6 5 84 579
97 619 3 7 21 12 43 12 22 0 44 -6 49 -12z m-949 -18 c43 -26 56 -60 77 -194
20 -133 16 -166 -31 -204 l-36 -30 61 -83 c33 -46 57 -87 53 -90 -4 -4 -28 -9
-54 -12 l-47 -7 -63 90 c-56 80 -66 89 -88 84 -14 -3 -26 -7 -28 -8 -1 -2 4
-43 12 -92 8 -49 11 -92 8 -95 -4 -4 -30 -10 -57 -14 l-51 -6 -49 303 c-26
167 -49 310 -49 318 -1 11 27 20 114 37 148 27 187 28 228 3z m1639 -141 c98
-34 179 -62 180 -64 3 -1 -27 -97 -32 -103 -1 -1 -33 9 -71 22 -37 14 -69 24
-71 22 -1 -1 -39 -110 -83 -242 -44 -131 -82 -244 -85 -251 -4 -12 -16 -9
-102 22 -8 3 14 82 73 256 46 139 83 253 82 254 -2 1 -33 12 -70 24 -38 13
-68 24 -68 25 0 1 7 23 16 49 11 33 21 47 34 47 10 0 99 -28 197 -61z m-2202
-2 c27 -27 44 -68 104 -250 46 -139 70 -226 66 -240 -12 -44 -30 -69 -59 -84
-43 -23 -196 -73 -220 -73 -28 0 -82 34 -96 60 -6 12 -43 114 -81 227 -78 227
-80 250 -31 304 34 37 169 88 236 89 41 0 53 -5 81 -33z m-500 -173 c15 -25
25 -47 23 -49 -1 -1 -31 -17 -65 -34 -35 -17 -63 -34 -63 -36 0 -3 54 -108
120 -235 66 -126 120 -231 120 -234 0 -3 -22 -17 -49 -31 l-50 -25 -67 128
c-154 293 -177 337 -181 342 -2 2 -31 -11 -64 -29 -34 -18 -64 -29 -68 -25 -4
5 -18 25 -29 45 -17 29 -19 39 -10 47 13 10 346 182 353 182 2 0 15 -21 30
-46z m3210 -42 c107 -56 139 -94 132 -157 -6 -61 -199 -426 -236 -448 -49 -29
-97 -21 -196 31 -105 56 -140 96 -132 152 3 19 52 125 109 234 89 171 108 202
138 218 52 27 86 22 185 -30z m-2777 -699 c31 -73 59 -133 63 -133 3 0 30 56
59 125 29 69 59 130 66 136 7 6 28 9 46 7 l33 -3 3 -282 2 -283 -55 0 -55 0
-1 123 c0 137 6 138 -63 -13 l-35 -75 -27 60 c-14 33 -36 80 -48 105 l-21 45
-3 -122 -3 -123 -54 0 -55 0 0 278 c0 153 3 282 7 286 4 4 25 6 46 4 l39 -3
56 -132z m711 100 c21 -81 131 -523 131 -528 0 -12 -111 -5 -115 8 -2 6 -9 31
-15 55 l-11 42 -74 0 -74 0 -12 -55 -12 -55 -59 0 c-55 0 -58 1 -53 23 7 32
114 465 126 510 l10 37 74 0 74 0 10 -37z m578 9 c40 -28 53 -71 53 -173 0
-104 -8 -135 -42 -169 -27 -27 -35 -29 -116 -32 l-87 -3 -3 -82 -3 -83 -54 0
-55 0 0 278 c0 153 3 282 8 286 4 5 66 6 137 4 116 -3 134 -6 162 -26z m323
-202 l0 -229 103 -3 102 -3 0 -50 0 -50 -157 -3 -158 -3 0 286 0 285 55 0 55
0 0 -230z m670 175 l0 -55 -105 0 -105 0 0 -60 0 -60 70 0 70 0 0 -55 0 -55
-70 0 -70 0 0 -60 0 -60 105 0 105 0 0 -55 0 -55 -160 0 -160 0 0 285 0 285
160 0 160 0 0 -55z m-2320 -910 l0 -225 110 0 110 0 0 -55 0 -55 -165 0 -165
0 0 280 0 280 55 0 55 0 0 -225z m720 170 l0 -55 -120 0 -120 0 0 -60 0 -60
85 0 85 0 0 -55 0 -55 -85 0 -85 0 0 -55 0 -54 118 -3 117 -3 3 -52 3 -53
-180 0 -181 0 0 280 0 280 180 0 180 0 0 -55z m511 -222 l74 -278 -54 -3 c-60
-3 -66 1 -76 60 l-7 38 -88 0 -88 0 -7 -38 c-10 -59 -16 -63 -77 -60 l-55 3
54 200 c29 110 63 235 74 278 l21 77 77 0 78 0 74 -277z m559 222 l0 -55 -120
0 -120 0 0 -60 0 -60 85 0 85 0 0 -55 0 -55 -85 0 -85 0 0 -115 0 -115 -55 0
-55 0 0 285 0 285 175 0 175 0 0 -55z m465 41 c43 -18 66 -53 68 -108 l2 -43
-57 -3 c-55 -3 -57 -2 -60 25 -3 27 -5 28 -69 31 -49 2 -69 -1 -78 -12 -26
-31 -3 -52 111 -102 141 -63 153 -77 153 -182 -1 -85 -15 -118 -62 -143 -37
-20 -230 -19 -267 1 -36 19 -56 59 -56 110 l0 40 55 0 c48 0 55 -2 55 -20 0
-10 9 -24 19 -30 25 -13 97 -13 122 0 19 11 26 54 11 76 -4 7 -54 33 -112 58
-136 60 -150 76 -150 167 0 80 16 114 65 135 41 18 206 18 250 0z m-675 -892
l225 -59 190 1 c105 0 217 6 249 12 76 15 84 8 14 -13 -97 -29 -191 -39 -360
-40 -93 0 -168 -1 -168 -1 0 -8 137 -88 179 -106 76 -31 48 -34 -34 -3 -76 28
-162 75 -215 115 -57 44 -277 94 -415 95 -167 0 -234 -32 -305 -145 l-22 -35
5 46 c4 45 3 47 -34 68 -99 56 -221 75 -314 50 -22 -6 -119 -48 -215 -94 -190
-91 -283 -123 -165 -57 135 75 168 99 150 106 -50 19 -344 -8 -464 -44 -69
-20 -40 -1 36 23 147 48 220 60 378 62 139 1 154 4 207 28 31 14 86 32 122 38
55 10 75 10 133 -5 37 -9 97 -30 132 -46 l63 -30 40 31 c64 51 136 70 258 66
90 -3 137 -12 330 -63z"/>
<path d="M3450 3630 c-19 -19 -20 -33 -20 -199 0 -210 1 -211 85 -211 84 0 85
1 85 211 0 166 -1 180 -20 199 -14 14 -33 20 -65 20 -32 0 -51 -6 -65 -20z"/>
<path d="M2896 3593 c-28 -4 -28 -6 -23 -51 3 -26 11 -78 17 -116 l12 -68 30
6 c17 3 41 6 53 6 13 0 33 8 45 18 22 17 22 20 10 97 -17 109 -22 115 -73 114
-23 -1 -55 -4 -71 -6z"/>
<path d="M2351 3452 c-72 -28 -72 -32 -12 -209 63 -184 73 -203 106 -203 39 0
104 30 111 52 7 22 -101 342 -123 364 -18 18 -27 17 -82 -4z"/>
<path d="M5006 3095 c-48 -91 -86 -173 -84 -182 4 -20 60 -61 96 -70 16 -4 30
0 42 13 32 33 172 312 168 336 -4 26 -70 68 -109 68 -24 0 -35 -16 -113 -165z"/>
<path d="M3057 2558 c-10 -46 -21 -93 -24 -105 -5 -21 -2 -23 41 -23 33 0 46
4 46 14 0 15 -40 196 -43 196 -1 0 -10 -37 -20 -82z"/>
<path d="M3540 2575 l0 -95 46 0 c76 0 84 9 84 95 0 86 -8 95 -84 95 l-46 0 0
-95z"/>
<path d="M3458 1795 l-25 -105 53 0 c31 0 54 4 54 10 0 19 -43 185 -49 192 -4
4 -18 -39 -33 -97z"/>
</g>
</svg>
