<svg xmlns="http://www.w3.org/2000/svg" viewBox="0 0 128.9 136.7">
  <title>Asset 2</title>
  <g id="Layer_2" data-name="Layer 2">
    <g id="Artwork">
      <g>
        <g>
          <path d="M0,0V1.1C.8,7,5,10.6,11.6,11a8.6,8.6,0,0,0,4.1,3.5V89.2l48.7,47.5,48.4-47.2.3-.3V14.5a8.6,8.6,0,0,0,4.1-3.5c6.7-.4,10.8-4,11.5-9.9V0Z" fill="#ffb819"/>
          <path d="M112.2,88.8V13.9a7.4,7.4,0,0,0,4.5-3.8c7.2-.2,10.6-4.2,11.2-9.1H1.1C1.6,5.9,5,9.9,12.2,10.1a7.4,7.4,0,0,0,4.5,3.8V88.8l47.7,46.6Z" fill="#091f40"/>
          <polygon points="25.4 88 25.4 16.7 103.6 16.7 103.6 88 64.5 126.1 25.4 88" fill="#091f40"/>
          <g>
            <path d="M76,8.9h37.6s-1.1,2.7-7,2.7H74.8Z" fill="#9b8542"/>
            <path d="M74.8,11.6h31.8a10.4,10.4,0,0,0,5.6-1.3H75.4Z" fill="#ffb819"/>
            <path d="M69.9,12.4l3.5-8.2h49.6s-1.1,2.7-7,2.7H74.5l-3.2,7.5H64.9v-2Z" fill="#9b8542"/>
            <path d="M121.6,5.6H75.1l-.5,1.3h41.5A10.4,10.4,0,0,0,121.6,5.6Z" fill="#ffb819"/>
            <path d="M52.9,8.9H15.3s1.1,2.7,7,2.7H54.1Z" fill="#9b8542"/>
            <path d="M54.1,11.6H22.3a10.4,10.4,0,0,1-5.6-1.3H53.5Z" fill="#ffb819"/>
            <polygon points="64.5 3 65.3 5.7 68.2 5.7 65.9 7.3 66.8 10 64.5 8.3 62.2 10 63 7.3 60.7 5.7 63.6 5.7 64.5 3" fill="#9b8542"/>
            <path d="M59,12.4,55.5,4.1H5.8s1.1,2.7,7,2.7H54.4l3.2,7.5H64v-2Z" fill="#9b8542"/>
            <path d="M7.3,5.6H53.9l.5,1.3H12.9A10.4,10.4,0,0,1,7.3,5.6Z" fill="#ffb819"/>
          </g>
          <g>
            <polygon points="22.1 87.2 20.5 85.6 20.5 14.8 22.1 16.1 22.1 87.2" fill="#9b8542"/>
            <polygon points="106.8 16.1 108.4 14.8 108.4 85.6 106.8 87.2 106.8 16.1" fill="#9b8542"/>
          </g>
        </g>
        <path d="M40.5,45.7l-3.5-2.5h4.3l1.3-4.1L44,43.2h4.3l-3.5,2.5,1.3,4.1-3.5-2.5-3.5,2.5Zm21.1,4.1,3.5-2.5,3.5,2.5-1.3-4.1,3.5-2.5H66.5l-1.3-4.1-1.3,4.1H59.5L63,45.7Zm27.2-6.6-1.3-4.1-1.3,4.1H82l3.5,2.5-1.3,4.1,3.5-2.5,3.5,2.5-1.3-4.1,3.5-2.5Z" fill="#fff"/>
        <path d="M100.9,53.3H74.2A14.6,14.6,0,0,0,65.8,56,14.9,14.9,0,0,0,62.6,59a4.4,4.4,0,0,0-.5-3.6,5.5,5.5,0,0,0-4.7-2.2H42.6a16.7,16.7,0,0,0-8.1,2.2A12,12,0,0,0,29.2,61a4.3,4.3,0,0,0,.3,4.1A4.8,4.8,0,0,0,33.5,67h5.7c2.6,0,5.4-2,6.1-2.6l.3.6A5,5,0,0,0,50,67h8.7L56,73.7h5.9L64.6,67H90.9a8.9,8.9,0,0,0,3.6-.6,5,5,0,0,0,2.7-2.7,4.5,4.5,0,0,0-.2-4.2,3.8,3.8,0,0,0-1.1-1.1h2.9Z" fill="#fff"/>
        <path d="M33.5,61.7c-.4.9-.1,1.5.6,1.5h5.5a4.9,4.9,0,0,0,2.5-.9l2.7,1.1s-3,2.4-5.5,2.4H33.5c-2.8,0-4.2-2-3.2-4.3,1.6-3.9,7.1-7,12.3-7H47l-1.1,2.6H41.7c-3.5,0-7.1,2-8.2,4.5m13.1-.4c.6-1.5,2.5-2.7,5.1-2.7h6.6s.6-1.4-1.4-1.4H47.8l1.1-2.6h8.4c3.2,0,5,2.2,3.8,4.9l-2.6,6.4H55.3l.3-.7a4.4,4.4,0,0,1-2.2.7H50c-2.9,0-4.5-2.1-3.4-4.6m3.4,2H55a2.2,2.2,0,0,0,1.9-1.1l.5-1.3a5.6,5.6,0,0,1-2,.4H50.9a1.7,1.7,0,0,0-1.4,1c-.2.6,0,1,.6,1m33.2-6.1c-1,2.4.3,4.4,2.9,4.4h6.6c.5,0,.7.4.5.9a1.5,1.5,0,0,1-1.2.9H80l-1.1,2.6h12c2.2,0,4.3-.5,5.1-2.6s-.3-4.4-2.9-4.4H86.6c-.5,0-.7-.4-.5-.9a1.5,1.5,0,0,1,1.2-.9H98L99,54.5H88.4c-2.2,0-4.5,1-5.1,2.6M61,72.5l3.8-9.1a9.9,9.9,0,0,1,9.6-6.3h3.2l-2,4.9a2,2,0,0,1-1.7,1.2H66.4l-1.1,2.6h8.9a4.3,4.3,0,0,0,4.2-2.9l3.5-8.4H74.2a13.4,13.4,0,0,0-12.5,8.3l-4,9.6Z" fill="#cf0a2c"/>
      </g>
    </g>
  </g>
</svg>
