<svg xmlns="http://www.w3.org/2000/svg" viewBox="0 0 128.87 136.68"><defs><style>.cls-1{fill:#ffb819;}.cls-2{fill:#091f40;}.cls-3{fill:#fff;}.cls-4{fill:#9b8542;}.cls-5{fill:#001f5b;}</style></defs><title>Asset 1</title><g id="Layer_2" data-name="Layer 2"><g id="Artwork"><path class="cls-1" d="M0,0,.12,1.07C.8,7,5,10.64,11.64,11a8.55,8.55,0,0,0,4.11,3.54V89.16l48.71,47.52,48.42-47.24.29-.28V14.54A8.55,8.55,0,0,0,117.28,11c6.66-.36,10.85-4,11.52-9.93L128.87,0Z"/><path class="cls-2" d="M112.21,88.75V13.9a7.4,7.4,0,0,0,4.46-3.83c7.24-.18,10.62-4.17,11.17-9.1H1.08C1.63,5.9,5,9.88,12.25,10.06a7.4,7.4,0,0,0,4.46,3.83V88.75l47.75,46.58Z"/><polygon class="cls-3" points="25.36 88 25.36 16.71 103.56 16.71 103.56 88 64.46 126.14 25.36 88"/><path class="cls-4" d="M76,8.86h37.65s-1.09,2.74-7,2.74H74.85Z"/><path class="cls-1" d="M74.85,11.6h31.8a10.37,10.37,0,0,0,5.56-1.26H75.39Z"/><path class="cls-4" d="M69.93,12.37l3.53-8.23h49.64s-1.09,2.74-7,2.74H74.53l-3.2,7.46H64.88v-2Z"/><path class="cls-1" d="M121.63,5.63H75.07l-.54,1.26h41.54A10.37,10.37,0,0,0,121.63,5.63Z"/><path class="cls-4" d="M52.9,8.86H15.25s1.09,2.74,7,2.74h31.8Z"/><path class="cls-1" d="M54.08,11.6H22.28a10.37,10.37,0,0,1-5.56-1.26H53.54Z"/><polygon class="cls-4" points="64.46 2.95 65.34 5.65 68.17 5.65 65.88 7.32 66.76 10.02 64.46 8.35 62.17 10.02 63.04 7.32 60.75 5.65 63.59 5.65 64.46 2.95"/><path class="cls-4" d="M59,12.37,55.47,4.14H5.83s1.09,2.74,7,2.74H54.39l3.2,7.46H64v-2Z"/><path class="cls-1" d="M7.29,5.63H53.85l.54,1.26H12.85A10.37,10.37,0,0,1,7.29,5.63Z"/><polygon class="cls-4" points="22.1 87.23 20.52 85.63 20.52 14.78 22.1 16.06 22.1 87.23"/><polygon class="cls-4" points="106.82 16.06 108.41 14.78 108.41 85.63 106.82 87.23 106.82 16.06"/><path class="cls-5" d="M93.92,53.13a1.1,1.1,0,0,0-.06-.36l-.21-.5-.44-.16a14.29,14.29,0,0,0-1.55-.49,21.36,21.36,0,0,0,1-3.79,1.14,1.14,0,0,0,0-.2,1.1,1.1,0,0,0-.35-.81l-.49-.4-.53.14A26.71,26.71,0,0,0,87.48,48a8.8,8.8,0,0,0-.81-2.07,1.1,1.1,0,0,0-.7-.54l-.54-.1-.38.27a27.23,27.23,0,0,0-3.5,3,5.45,5.45,0,0,0-.79-.69,1.09,1.09,0,0,0-1.51.19,44.32,44.32,0,0,1-4.87,5.23C74.9,52,75.48,50.89,76,49.78a1.1,1.1,0,0,0,0-1l-.27-.49-.47-.11-.3-.06a27.16,27.16,0,0,0,2.37-5.61,1.07,1.07,0,0,0,0-.31,1.1,1.1,0,0,0-.23-.68l-.4-.44-.51,0a14.33,14.33,0,0,0-2.53.36q0-.5,0-1a21.48,21.48,0,0,0-.38-3.86,1.09,1.09,0,0,0-.52-.76l-.5-.25-.45.17c-.4.15-.84.34-1.29.57a19.43,19.43,0,0,0-.51-4,1.1,1.1,0,0,0-.54-.7l-.47-.22-.42.15a9.1,9.1,0,0,0-1.15.51,32,32,0,0,0-2.35-4.43,1.1,1.1,0,0,0-.94-.53h0l-.64.05-.29.47A32.12,32.12,0,0,0,61,32.05a9,9,0,0,0-1.14-.5,1.1,1.1,0,0,0-.9.08l-.43.27-.1.43a19.34,19.34,0,0,0-.51,4c-.45-.22-.89-.42-1.31-.58a1.1,1.1,0,0,0-.91.09l-.45.3-.08.45a21.73,21.73,0,0,0-.38,3.88q0,.52,0,1a14.36,14.36,0,0,0-2.53-.36,1.11,1.11,0,0,0-.91.42L51,42l.15.5a27.07,27.07,0,0,0,2.37,5.61l-.27.05a1.08,1.08,0,0,0-.77.59l-.22.54.23.45c.57,1.11,1.15,2.28,1.67,3.47A46.2,46.2,0,0,1,49.33,48a1.09,1.09,0,0,0-1.49-.2,5.5,5.5,0,0,0-.8.7,27.23,27.23,0,0,0-3.52-3,1.11,1.11,0,0,0-.87-.17l-.5.15-.22.39A9.16,9.16,0,0,0,41.11,48a26.79,26.79,0,0,0-3.88-1.4,1.09,1.09,0,0,0-1,.27l-.43.47.1.54a21.26,21.26,0,0,0,1,3.78,14.16,14.16,0,0,0-1.56.49,1.1,1.1,0,0,0-.64.65l-.15.53.24.4a17.92,17.92,0,0,0,2.89,3.78,9.12,9.12,0,0,0-.7.62,1.09,1.09,0,0,0-.32.77,1.14,1.14,0,0,0,.32.79,37.16,37.16,0,0,0,4.73,3.94,11.78,11.78,0,0,0-1.16,1.2,1.11,1.11,0,0,0-.27.72s0,.06,0,.09l.07.46.3.27a18.24,18.24,0,0,0,4.06,2.73c-.28.28-.55.58-.83.91a1.09,1.09,0,0,0-.26.71,1.11,1.11,0,0,0,0,.21l.15.55.43.22a14,14,0,0,0,2.08.85,33.84,33.84,0,0,0-3.53,1.71,1.1,1.1,0,0,0-.56.88v.64l.44.33a23.16,23.16,0,0,0,3.51,2.2,33.56,33.56,0,0,0-5,5.75,1.1,1.1,0,0,0,0,1.2,1.11,1.11,0,0,0,1.08.52c1.88-.24,3.45-.49,4.82-.78q-.2.48-.39,1a1.1,1.1,0,0,0,.18,1l.43.47.55-.06c1.51-.16,2.78-.33,3.87-.51A16.36,16.36,0,0,0,51,88.66a1.1,1.1,0,0,0,1.25,1.43,43.82,43.82,0,0,0,9.37-2.83,10.42,10.42,0,0,0,2.73,5.47,1.13,1.13,0,0,0,.83.36,1.14,1.14,0,0,0,.77-.3L68,91a1.14,1.14,0,0,0,.37-.84,1.16,1.16,0,0,0-.29-.76,8.17,8.17,0,0,1-1.45-2.16,59.75,59.75,0,0,0,9.7,2.88,1.1,1.1,0,0,0,1-.34l.4-.52-.17-.55a16.49,16.49,0,0,0-.67-1.8c1.1.18,2.38.35,3.88.51a1.08,1.08,0,0,0,1-.43l.34-.53-.19-.51q-.19-.5-.38-1c1.37.29,2.94.55,4.81.78a1.1,1.1,0,0,0,1.09-.53,1.11,1.11,0,0,0,.16-.57,1.06,1.06,0,0,0-.2-.63,33.51,33.51,0,0,0-5-5.74A23.12,23.12,0,0,0,85.91,76a1.1,1.1,0,0,0,.43-.87s0-.05,0-.08l-.09-.62-.47-.26a33.9,33.9,0,0,0-3.53-1.71,14,14,0,0,0,2.09-.85,1.09,1.09,0,0,0,.57-.76l.07-.55-.3-.37c-.28-.33-.55-.64-.83-.92a18.3,18.3,0,0,0,4.06-2.73,1.1,1.1,0,0,0,.37-.82,1.11,1.11,0,0,0-.26-.71,11.85,11.85,0,0,0-1.17-1.21,37.43,37.43,0,0,0,4.76-4,1.1,1.1,0,0,0,.31-.76,1.12,1.12,0,0,0-.33-.79,9.06,9.06,0,0,0-.69-.61,17.91,17.91,0,0,0,2.88-3.78A1.1,1.1,0,0,0,93.92,53.13Zm-1,0a16,16,0,0,1-3.53,4.3.1.1,0,0,0,0,.16,8.08,8.08,0,0,1,1.49,1.15.11.11,0,0,1,0,.15,36,36,0,0,1-5.59,4.49.1.1,0,0,0,0,.16,12.42,12.42,0,0,1,2,1.85.1.1,0,0,1,0,.14,17.63,17.63,0,0,1-5.09,3.14.1.1,0,0,0,0,.17,10.49,10.49,0,0,1,1.77,1.72.1.1,0,0,1,0,.15A17.69,17.69,0,0,1,79,72.25a.08.08,0,0,0,0,.15,32.51,32.51,0,0,1,6.25,2.68.1.1,0,0,1,0,.17,19.64,19.64,0,0,1-4.62,2.67.1.1,0,0,0,0,.17,31.57,31.57,0,0,1,5.92,6.48.1.1,0,0,1-.09.16A48,48,0,0,1,80,83.53a.09.09,0,0,0-.11.14A25.63,25.63,0,0,1,81,86.26a.1.1,0,0,1-.11.14,52.38,52.38,0,0,1-5.66-.86.1.1,0,0,0-.1.15A13,13,0,0,1,76.61,89a.1.1,0,0,1-.11.13,57.09,57.09,0,0,1-10.66-3.3.3.3,0,0,0-.41.21c-.32,1.54,1.47,3.57,1.86,4a.15.15,0,0,1,0,.21l-2,1.81a.14.14,0,0,1-.19,0A9.45,9.45,0,0,1,62.51,86a.13.13,0,0,0-.18-.11A41.55,41.55,0,0,1,52.1,89.1.1.1,0,0,1,52,89a12.92,12.92,0,0,1,1.5-3.28.1.1,0,0,0-.11-.15,52.37,52.37,0,0,1-5.65.86.1.1,0,0,1-.11-.14,25.65,25.65,0,0,1,1.12-2.6.1.1,0,0,0-.11-.14,48,48,0,0,1-6.51,1.2.1.1,0,0,1-.1-.16,31.66,31.66,0,0,1,5.92-6.48.1.1,0,0,0,0-.17,19.65,19.65,0,0,1-4.62-2.67.1.1,0,0,1,0-.17,32.46,32.46,0,0,1,6.25-2.68.08.08,0,0,0,0-.15,17.69,17.69,0,0,1-4.83-1.49.1.1,0,0,1,0-.15,10.49,10.49,0,0,1,1.77-1.72.1.1,0,0,0,0-.17,17.58,17.58,0,0,1-5.08-3.14.1.1,0,0,1,0-.14,12.41,12.41,0,0,1,2-1.85.1.1,0,0,0,0-.16,35.91,35.91,0,0,1-5.59-4.49.11.11,0,0,1,0-.15,8.13,8.13,0,0,1,1.49-1.15.1.1,0,0,0,0-.16,16,16,0,0,1-3.53-4.3.1.1,0,0,1,.05-.15,11.78,11.78,0,0,1,2.5-.66.1.1,0,0,0,.07-.14,18,18,0,0,1-1.44-4.59.1.1,0,0,1,.12-.12,28.06,28.06,0,0,1,4.7,1.8.09.09,0,0,0,.13-.06,10.68,10.68,0,0,1,1-2.9.1.1,0,0,1,.15,0A25.33,25.33,0,0,1,47,50a.1.1,0,0,0,.16,0,4.47,4.47,0,0,1,1.23-1.34.1.1,0,0,1,.13,0,39.73,39.73,0,0,0,7.63,7.47.08.08,0,0,0,.13-.09,41.47,41.47,0,0,0-2.88-6.7.1.1,0,0,1,.06-.14A10.42,10.42,0,0,1,55.1,49a.1.1,0,0,0,.07-.15,24.83,24.83,0,0,1-3-6.59.09.09,0,0,1,.09-.12,13.57,13.57,0,0,1,3.6.69.09.09,0,0,0,.12-.11,17.39,17.39,0,0,1,.18-5.95.1.1,0,0,1,.13-.08,16.35,16.35,0,0,1,2.52,1.25.1.1,0,0,0,.15-.09,18.26,18.26,0,0,1,.45-5.3.09.09,0,0,1,.12-.07,11.07,11.07,0,0,1,1.9.94.1.1,0,0,0,.14-.05,27.21,27.21,0,0,1,2.64-5.24.1.1,0,0,1,.17,0A27,27,0,0,1,67,33.38a.1.1,0,0,0,.14.05,11.11,11.11,0,0,1,1.9-.94.09.09,0,0,1,.12.07,18.36,18.36,0,0,1,.45,5.3.1.1,0,0,0,.15.09,16.23,16.23,0,0,1,2.53-1.25.1.1,0,0,1,.13.08,17.39,17.39,0,0,1,.18,5.95.09.09,0,0,0,.12.11,13.55,13.55,0,0,1,3.6-.69.1.1,0,0,1,.09.12,24.88,24.88,0,0,1-3,6.59.1.1,0,0,0,.08.15,10.43,10.43,0,0,1,1.61.19.09.09,0,0,1,.06.14A41.32,41.32,0,0,0,72.29,56a.09.09,0,0,0,.13.1A39.59,39.59,0,0,0,80,48.64a.1.1,0,0,1,.13,0A4.49,4.49,0,0,1,81.4,50a.1.1,0,0,0,.16,0,25.39,25.39,0,0,1,4.08-3.66.1.1,0,0,1,.15,0,10.53,10.53,0,0,1,1,2.9.09.09,0,0,0,.13.06,28.05,28.05,0,0,1,4.7-1.8.1.1,0,0,1,.12.12,18,18,0,0,1-1.44,4.59.1.1,0,0,0,.07.14,11.75,11.75,0,0,1,2.5.66A.1.1,0,0,1,92.91,53.18Z"/><path class="cls-5" d="M63.92,53.26a.06.06,0,0,1,0,0c0,.75,0,1.44.06,2.11a0,0,0,0,0,0,0h.53l0,0a.05.05,0,0,0,0,0c0-.47,0-.95-.06-1.42a.08.08,0,0,1,0-.07,18.54,18.54,0,0,0,5.48-6.14l0,0a19.32,19.32,0,0,1-5.47,5.6,0,0,0,0,1,0,0c-.1-3-.09-5.48,0-7.57,0-.28,0-.58,0-.9a.1.1,0,0,1,.05-.08,12.41,12.41,0,0,0,3-2.42l0,0a14,14,0,0,1-3,2.07h0v0c.06-3.71,0-8-.2-10.07h0c0,2.15,0,4.36-.07,6.57a0,0,0,0,1,0,0h0a21,21,0,0,1-2.43-3.12l0,0a20.19,20.19,0,0,0,2.43,3.57.2.2,0,0,1,0,.14c0,1.43-.12,2.84-.2,4.2,0,.47,0,1-.06,1.56a0,0,0,0,1,0,0,12,12,0,0,1-3-3.21l0,0a10.87,10.87,0,0,0,3,3.56.17.17,0,0,1,.07.14c0,1.63-.06,3.28,0,4.9h0a17.6,17.6,0,0,1-5.52-5.28l0,0a17,17,0,0,0,5.55,5.8"/><path class="cls-5" d="M47.74,58.53a.16.16,0,0,1,0-.11,5.76,5.76,0,0,0-1.4-3.73l0,0a5.87,5.87,0,0,1,1,3.35h0c-.87-.86-1.81-1.75-2.81-2.63a.14.14,0,0,1,0-.11,5.55,5.55,0,0,0-.53-2.93h0a5.36,5.36,0,0,1,.23,2.69h0c-1.11-1-2.32-2.22-3.73-3.69l0,0c1.18,1.41,2.57,2.89,4.26,4.54.25.23.51.49.8.78l-.5,0a8.26,8.26,0,0,1-3.58-.89l0,0a8,8,0,0,0,4.26,1.21h.16l.06,0c.56.57,1.19,1.24,1.93,2l0,0h0l.36-.17a0,0,0,0,0,0,0,0,0,0,0,0,0,0l-.4-.42"/><path class="cls-5" d="M82.86,57.4h-.47a0,0,0,0,1,0,0c.63-.64,1.26-1.27,1.89-1.87,1.28-1.3,2.49-2.61,3.61-3.91l0,0c-1.32,1.33-2.66,2.64-4.11,4h0a8.62,8.62,0,0,1,.09-2.9h0a7.47,7.47,0,0,0-.38,3.16.15.15,0,0,1,0,.12c-1.1,1-2.13,2-3.07,2.94a0,0,0,0,0,0,0,0,0,0,0,0,0,0l.37.19h0l0,0c.35-.38.73-.79,1.18-1.26a.18.18,0,0,1,.13-.05,7.79,7.79,0,0,0,4.08-1.11l0,0a7.88,7.88,0,0,1-3.26.75"/><path class="cls-5" d="M70.12,83a0,0,0,0,1,0,0,10.33,10.33,0,0,0,1.75.15,9.47,9.47,0,0,0,4-.69,13.56,13.56,0,0,1-3.71.36c-2.13,0-4.81-1.29-6.55-1.29a3.13,3.13,0,0,0-2.65,1h0a5.22,5.22,0,0,0-2.69-.87,4.72,4.72,0,0,0-2.18.76h0a11.24,11.24,0,0,0-5.79.82,12.87,12.87,0,0,1,5.28-.52,0,0,0,0,1,0,0,14.74,14.74,0,0,1-2.5,1.37c1.59-.18,3.66-2,5.27-2a4.94,4.94,0,0,1,2.44.86,0,0,0,0,1,0,0,2.29,2.29,0,0,0-.08.87c.52-1.45,1.58-1.79,3-1.79a17,17,0,0,1,3.55.7l0,0a7.9,7.9,0,0,0,3,1.51l.3,0-.28-.11A7.74,7.74,0,0,1,70.12,83"/><path class="cls-5" d="M63.67,63.74c.12,0,.68,0,1.49,0a1.11,1.11,0,0,0,1.14-1.12V58.88a1.17,1.17,0,0,0-1.14-1.17H63.69a1.17,1.17,0,0,0-1.15,1.17v3.74a1.11,1.11,0,0,0,1.13,1.12m0-4.57a.46.46,0,0,1,.46-.46h.68a.46.46,0,0,1,.45.46v3.11a.45.45,0,0,1-.45.45h-.68a.46.46,0,0,1-.46-.45Zm12.15,13h-3V66.89h3v1h-2V69h1.36v1H73.78v1.14h2ZM56.16,66.89H57v5.25H56V69.71L55,71.81l-.93-2.1v2.42h-1V66.89h.82L55,69.52ZM54.11,78h2v1H53.07V73.77h1ZM49.34,62.25l2.31,4.46-.94.49L48.4,62.74l-.07,0-1.16.63-.46-.89c1.12-.62,2.27-1.22,3.43-1.77l.46.89-1.19.59Zm4.75,3.32a1.18,1.18,0,0,0,.39-.07l1.4-.48a1.13,1.13,0,0,0,.67-.57,1.1,1.1,0,0,0,.06-.86l-1.2-3.54a1.19,1.19,0,0,0-1.11-.8,1.11,1.11,0,0,0-.35.06l-1.4.47a1.17,1.17,0,0,0-.71,1.48L53,64.81a1.12,1.12,0,0,0,1.06.76M53,61.19a.46.46,0,0,1,.28-.58l.65-.22.14,0a.46.46,0,0,1,.43.31l1,2.95a.44.44,0,0,1,0,.35.44.44,0,0,1-.26.23l-.65.22-.15,0h0a.45.45,0,0,1-.43-.31ZM73.1,65.07l1.6-4.77-.08,0-1.26-.4.32-1c1.23.37,2.46.78,3.66,1.23l-.32,1-1.25-.45-.08,0L74.1,65.4l-1-.34m-3.58,1.82v4.26h1.9v1H68.49V66.89Zm-2,6.88h3.29v1H68.59V75.9h1.61v1H68.59V79h-1ZM81.06,61.93l-1.31-.68a1.13,1.13,0,0,0-.51-.12,1.19,1.19,0,0,0-1,.64l-1.72,3.33a1.1,1.1,0,0,0-.07.86,1.14,1.14,0,0,0,.57.66l1.31.68a1.16,1.16,0,0,0,.54.14,1.11,1.11,0,0,0,1-.6l1.72-3.32a1.17,1.17,0,0,0-.48-1.57m-.62,1.32L79,66a.45.45,0,0,1-.4.24.46.46,0,0,1-.21-.05l-.6-.31a.45.45,0,0,1-.23-.27.45.45,0,0,1,0-.35L79,62.52a.46.46,0,0,1,.41-.25.45.45,0,0,1,.21.05l.61.31a.46.46,0,0,1,.19.62m-12,.75-1-.15,1-5.95.83.12,1.16,3.43.1.3L71,58.33l1,.2-1,5.95-.82-.16-1.17-3.44-.1-.3Zm7.37,10.8v.49h-1v-.22a.32.32,0,0,0-.32-.32h-.85a.32.32,0,0,0-.32.32v.12a.35.35,0,0,0,.17.28l1.86.83a1,1,0,0,1,.5.92V78a1,1,0,0,1-1,1H73.25a1,1,0,0,1-1-1v-.49h1v.22a.32.32,0,0,0,.32.32h.85a.32.32,0,0,0,.32-.32v-.33a.34.34,0,0,0-.17-.28l-1.86-.83a1,1,0,0,1-.5-.92V74.8a1,1,0,0,1,1-1h1.48a1,1,0,0,1,1,1M65.9,66.89H63.63v5.25h1V70.6H65.9a1,1,0,0,0,1-1V67.92a1,1,0,0,0-1-1m0,2.41a.32.32,0,0,1-.32.32h-.93V67.87h.93a.32.32,0,0,1,.32.32ZM61,66.89H59.6l-1.29,5.25h1.06l.22-1H61l.22,1H62.3Zm-1.19,3.27L60.3,68l.49,2.19Zm-2.31,3.6h3.29v1H58.54V75.9h1.6v1h-1.6V78h2.25v1H57.5Zm1.59-9.54-.29-1.78h.08l.44-.08h0l0,0L60.54,64l1-.14-1.12-1.6-.06-.08.09,0a1.11,1.11,0,0,0,.67-1.2L60.84,59a1.17,1.17,0,0,0-1.15-1h-.17c-.81.12-1.62.26-2.43.42l1,6,1-.19m-.72-5,.95-.16a.46.46,0,0,1,.52.38L60,60.76a.45.45,0,0,1-.08.34.45.45,0,0,1-.3.18l-.95.16h-.08l-.35-2.18Zm5.09,14.51L62,79h1.07l.25-1H65l.25,1H66.3l-1.42-5.25ZM63.62,77l.56-2.19L64.73,77Z"/></g></g></svg>